<svg id="Capa_1" data-name="Capa 1" xmlns="http://www.w3.org/2000/svg" viewBox="0 0 189.93 429.94"><defs><style>.cls-1{fill:#e5e5e5;}</style></defs><path class="cls-1" d="M296.81,91.1H281a16,16,0,0,0-15.78,15.78v15.78c0,9.2,6.57,15.78,15.78,15.78V170c0,7.89-2.63,15.78-7.89,21L240.27,223.9c-2.62,2.63-6.57,2.63-6.57-1.31V67.44h15.78c9.2,0,11.83-6.58,6.57-13.15L235,25.36c-5.26-6.58-13.15-6.58-18.41,0L196.88,53c-6.57,7.89-3.94,14.47,5.26,14.47h15.78V269.92c0,3.95-2.63,3.95-5.26,1.32l-32.87-32.87c-5.26-5.26-9.2-11.84-9.2-21V184.46c9.2-2.63,15.78-11.84,15.78-22.35a23.67,23.67,0,0,0-47.34,0c0,10.51,6.57,19.72,15.78,22.35v32.87A43.55,43.55,0,0,0,168,248.89l40.76,40.76c5.26,5.26,9.2,9.2,9.2,22.35v16.8a56.9,56.9,0,0,1,6-.32,60.71,60.71,0,0,1,11.4,1.08c-.53-.16-1.06-.33-1.6-.47V264.67c0-13.15,4-15.78,9.2-21l40.77-40.76c9.2-9.21,13.14-19.73,13.14-32.88V138.44c9.21,0,15.78-6.58,15.78-15.78V106.88C312.59,97.68,306,91.1,296.81,91.1Z" transform="translate(-122.66 -20.43)"/><path class="cls-1" d="M225.81,450.37a72.86,72.86,0,0,0,31.77-138.44,7.87,7.87,0,1,0-6.83,14.17,57.17,57.17,0,1,1-49.88,0A7.87,7.87,0,0,0,194,311.93a72.86,72.86,0,0,0,31.77,138.44Z" transform="translate(-122.66 -20.43)"/><path class="cls-1" d="M225.81,376a7.86,7.86,0,0,0,7.87-7.86v-40a7.87,7.87,0,0,0-15.73,0v40A7.86,7.86,0,0,0,225.81,376Z" transform="translate(-122.66 -20.43)"/><text x="-122.66" y="-20.43"/></svg>