<svg id="Capa_1" data-name="Capa 1" xmlns="http://www.w3.org/2000/svg" viewBox="0 0 237.03 426.13"><defs><style>.cls-1{fill:#e5e5e5;}</style></defs><path class="cls-1" d="M221.67,42.55,232.56,27.3c2.9-3.63,7.26-3.63,10.17,0l11.62,16c2.9,3.63,1.45,7.26-3.64,7.26H242v85.69c0,2.18,2.18,2.18,3.63.73l18.16-18.16a16.5,16.5,0,0,0,4.35-11.62V89.76A8.4,8.4,0,0,1,259.43,81V72.33a8.83,8.83,0,0,1,8.71-8.72h8.72a8.39,8.39,0,0,1,8.71,8.72V81a8.4,8.4,0,0,1-8.71,8.72v17.42c0,7.27-2.18,13.08-7.26,18.16l-22.52,22.51c-2.9,2.91-5.08,4.36-5.08,11.62v35.58c8.71,2.18,15.25,9.44,15.25,18.88a19.61,19.61,0,1,1-39.21,0c0-9.44,6.53-16.7,15.25-18.88v-9.44c0-7.26-2.18-9.44-5.09-12.34l-22.51-22.51a24.05,24.05,0,0,1-7.26-17.43V115.17c-5.08-1.45-8.72-6.53-8.72-12.34a13.08,13.08,0,0,1,26.15,0c0,5.81-3.63,10.89-8.72,12.34v18.16A15.8,15.8,0,0,0,212.23,145l18.15,18.15c1.45,1.45,2.91,1.45,2.91-.73V50.54h-8.72C219.49,50.54,218,46.91,221.67,42.55Z" transform="translate(-119.13 -24.58)"/><path class="cls-1" d="M356.16,332.19a115.42,115.42,0,0,1-9.41,46,117.13,117.13,0,0,1-63.12,63.11,117,117,0,0,1-92,0,117.13,117.13,0,0,1-63.12-63.11,115.25,115.25,0,0,1-9.41-46,117.4,117.4,0,0,1,47.37-94.6,19.53,19.53,0,0,1,14.74-3.86,18.27,18.27,0,0,1,12.89,7.72A18.79,18.79,0,0,1,197.91,256a19.25,19.25,0,0,1-7.64,13A78.74,78.74,0,0,0,166.89,297a78.64,78.64,0,0,0-2,65.81A78.28,78.28,0,0,0,207,405a78.21,78.21,0,0,0,61.27,0,78.22,78.22,0,0,0,42.12-42.13,78.69,78.69,0,0,0-2-65.81A79,79,0,0,0,285,269.07a19.21,19.21,0,0,1-7.64-13,18.79,18.79,0,0,1,3.78-14.58,18.31,18.31,0,0,1,13-7.72,19.16,19.16,0,0,1,14.66,3.86,117.37,117.37,0,0,1,47.38,94.6ZM257.4,213.67v98.77a19.76,19.76,0,0,1-39.51,0V213.67a19.76,19.76,0,0,1,39.51,0Z" transform="translate(-119.13 -24.58)"/></svg>