<svg id="Capa_1" data-name="Capa 1" xmlns="http://www.w3.org/2000/svg" viewBox="0 0 204.2 440.57"><defs><style>.cls-1{fill:#e5e5e5;}</style></defs><path class="cls-1" d="M309.35,97.51H290.78c-10.82,0-18.56,9.29-18.56,18.57v18.56c0,10.83,7.74,18.56,18.56,18.56v37.13c0,9.28-3.09,18.57-9.28,24.75l-38.67,38.68c-3.1,3.09-7.74,3.09-7.74-1.55V69.67h18.57c10.83,0,13.92-7.74,7.73-15.47l-24.75-34c-6.19-7.74-15.47-7.74-21.66,0l-23.2,32.48c-7.74,9.28-4.64,17,6.19,17h18.56V307.9c0,4.64-3.09,4.64-6.19,1.55l-38.67-38.68c-6.19-6.18-10.83-13.92-10.83-24.75V207.35c10.83-3.1,18.56-13.92,18.56-26.3a27.85,27.85,0,1,0-55.69,0c0,12.38,7.74,23.2,18.57,26.3V246a51.24,51.24,0,0,0,15.46,37.13l48,48c6.19,6.18,10.83,10.82,10.83,26.29v19.77a66,66,0,0,1,7-.38A71.86,71.86,0,0,1,237,378.06c-.63-.18-1.25-.39-1.89-.55v-75.8c0-15.47,4.64-18.56,10.83-24.75l48-47.95c10.83-10.83,15.47-23.21,15.47-38.68V153.2c10.83,0,18.56-7.73,18.56-18.56V116.08C327.91,105.25,320.18,97.51,309.35,97.51Z" transform="translate(-123.71 -14.36)"/><path class="cls-1" d="M283.11,397.43a56.06,56.06,0,0,1-4.56,22.32,56.82,56.82,0,0,1-30.63,30.62,56.86,56.86,0,0,1-44.62,0,56.84,56.84,0,0,1-30.62-30.62,56.06,56.06,0,0,1-4.57-22.32,56.94,56.94,0,0,1,23-45.89,9.44,9.44,0,0,1,7.15-1.87,8.84,8.84,0,0,1,6.25,3.74,9.09,9.09,0,0,1,1.83,7.08,9.29,9.29,0,0,1-3.7,6.32,38.29,38.29,0,0,0-11.34,13.55,38.18,38.18,0,0,0-1,31.94,38,38,0,0,0,20.44,20.44,38,38,0,0,0,29.73,0,37.93,37.93,0,0,0,20.43-20.44,37.22,37.22,0,0,0,3-14.87,37.66,37.66,0,0,0-4-17.07,38.29,38.29,0,0,0-11.34-13.55,9.31,9.31,0,0,1-3.71-6.32,9.14,9.14,0,0,1,1.84-7.08,8.84,8.84,0,0,1,6.29-3.74,9.28,9.28,0,0,1,7.11,1.87,56.89,56.89,0,0,1,23,45.89Zm-47.91-57.5v47.92a9.59,9.59,0,0,1-19.17,0V339.93a9.59,9.59,0,0,1,19.17,0Z" transform="translate(-123.71 -14.36)"/></svg>